<?xml version="1.0" encoding="UTF-8" standalone="no"?>
<!--! Font Awesome Pro 6.1.1 by @fontawesome - https://fontawesome.com License - https://fontawesome.com/license (Commercial License) Copyright 2022 Fonticons, Inc. -->
<svg
   viewBox="0 0 512 512"
   version="1.1"
   id="svg12"
   sodipodi:docname="Logo.svg"
   inkscape:version="1.2-beta (1b65182ce9, 2022-04-05)"
   xmlns:inkscape="http://www.inkscape.org/namespaces/inkscape"
   xmlns:sodipodi="http://sodipodi.sourceforge.net/DTD/sodipodi-0.dtd"
   xmlns:xlink="http://www.w3.org/1999/xlink"
   xmlns="http://www.w3.org/2000/svg"
   xmlns:svg="http://www.w3.org/2000/svg">
  <defs
     id="defs16">
    <linearGradient
       inkscape:collect="always"
       id="linearGradient2637">
      <stop
         style="stop-color:#177ec7;stop-opacity:1;"
         offset="0"
         id="stop2633" />
      <stop
         style="stop-color:#1c9a68;stop-opacity:1;"
         offset="1"
         id="stop2635" />
    </linearGradient>
    <linearGradient
       inkscape:collect="always"
       xlink:href="#linearGradient2637"
       id="linearGradient2641"
       x1="0"
       y1="256.00488"
       x2="511.10025"
       y2="256.00488"
       gradientUnits="userSpaceOnUse" />
  </defs>
  <sodipodi:namedview
     id="namedview14"
     pagecolor="#505050"
     bordercolor="#ffffff"
     borderopacity="1"
     inkscape:pageshadow="0"
     inkscape:pageopacity="0"
     inkscape:pagecheckerboard="1"
     inkscape:deskcolor="#505050"
     showgrid="false"
     inkscape:zoom="1.3037281"
     inkscape:cx="41.036163"
     inkscape:cy="172.58199"
     inkscape:window-width="2268"
     inkscape:window-height="1236"
     inkscape:window-x="133"
     inkscape:window-y="371"
     inkscape:window-maximized="0"
     inkscape:current-layer="svg12" />
  <path
     d="M424.1 287c-15.13-15.12-40.1-4.426-40.1 16.97V352H336L153.6 108.8C147.6 100.8 138.1 96 128 96H32C14.31 96 0 110.3 0 128s14.31 32 32 32h80l182.4 243.2C300.4 411.3 309.9 416 320 416h63.97v47.94c0 21.39 25.86 32.12 40.99 17l79.1-79.98c9.387-9.387 9.387-24.59 0-33.97L424.1 287zM336 160h47.97v48.03c0 21.39 25.87 32.09 40.1 16.97l79.1-79.98c9.387-9.391 9.385-24.59-.0013-33.97l-79.1-79.98c-15.13-15.12-40.99-4.391-40.99 17V96H320c-10.06 0-19.56 4.75-25.59 12.81L254 162.7L293.1 216L336 160zM112 352H32c-17.69 0-32 14.31-32 32s14.31 32 32 32h96c10.06 0 19.56-4.75 25.59-12.81l40.4-53.87L154 296L112 352z"
     id="path10"
     style="fill-opacity:1;fill:url(#linearGradient2641);stroke-width:0;stroke-dasharray:none;fill-rule:nonzero" />
</svg>
